Coordinates
version=1
nRows=21
nColumns=12
inDegrees=yes

Units are S.I. units (second, meters, Newtons, ...)
Angles are in degrees

endheader
time	SC_y	SC_z	SC_x	AC_y	AC_z	AC_x	GH_y	GH_z	GH_yy	EL_x	PS_y
       0.0               -26.1          14.88          47.25           50.6         -13.52          6.119          80.45          59.51         -31.72          98.45          147.5
  0.003397               -26.1          14.88          47.24          50.59         -13.51          6.116          80.46          59.51         -31.71          98.43          147.4
  0.006793               -26.1          14.89          47.24          50.59         -13.51          6.113          80.47           59.5          -31.7          98.42          147.4
   0.01019               -26.1          14.89          47.24          50.59         -13.51          6.109          80.48           59.5         -31.69          98.41          147.4
   0.01359               -26.1          14.89          47.23          50.59          -13.5          6.106          80.49          59.49         -31.67          98.39          147.4
   0.01698               -26.1           14.9          47.23          50.58          -13.5          6.102          80.51          59.48         -31.66          98.37          147.4
   0.02038               -26.1           14.9          47.22          50.58          -13.5          6.098          80.52          59.47         -31.65          98.35          147.4
   0.02378               -26.1          14.91          47.22          50.58         -13.49          6.094          80.53          59.46         -31.63          98.34          147.3
   0.02717               -26.1          14.91          47.21          50.57         -13.49          6.089          80.55          59.45         -31.61          98.31          147.3
   0.03057               -26.1          14.92           47.2          50.57         -13.48          6.084          80.57          59.44          -31.6          98.29          147.3
   0.03397               -26.1          14.92           47.2          50.57         -13.48          6.079          80.59          59.43         -31.58          98.27          147.3
   0.03736               -26.1          14.93          47.19          50.56         -13.47          6.073          80.61          59.42         -31.56          98.24          147.3
   0.04076               -26.1          14.94          47.18          50.56         -13.47          6.067          80.63          59.41         -31.54          98.21          147.2
   0.04416              -26.09          14.94          47.18          50.55         -13.46           6.06          80.65          59.39         -31.51          98.18          147.2
   0.04755              -26.09          14.95          47.17          50.55         -13.45          6.053          80.68          59.38         -31.49          98.15          147.2
   0.05095              -26.09          14.96          47.16          50.54         -13.45          6.045           80.7          59.36         -31.46          98.12          147.1
   0.05435              -26.09          14.97          47.15          50.53         -13.44          6.037          80.73          59.34         -31.43          98.08          147.1
   0.05774              -26.09          14.98          47.14          50.53         -13.43          6.028          80.77          59.32          -31.4          98.04          147.1
   0.06114              -26.09          14.99          47.12          50.52         -13.42          6.018           80.8           59.3         -31.36          97.99          147.0
   0.06454              -26.08           15.0          47.11          50.51         -13.41          6.007          80.84          59.28         -31.32          97.94          147.0
   0.06793              -26.08          15.01           47.1           50.5          -13.4          5.995          80.88          59.25         -31.28          97.89          146.9
